<?xml version="1.0" encoding="UTF-8" standalone="no"?>
<svg width="36px" height="50px" viewBox="0 0 36 50" version="1.1" xmlns="http://www.w3.org/2000/svg" xmlns:xlink="http://www.w3.org/1999/xlink">
    <!-- Generator: Sketch 46.2 (44496) - http://www.bohemiancoding.com/sketch -->
    <title>位置 (3)</title>
    <desc>Created with Sketch.</desc>
    <defs></defs>
    <g id="Page-1" stroke="none" stroke-width="1" fill="none" fill-rule="evenodd">
        <g id="p1" transform="translate(-731.000000, -625.000000)" fill-rule="nonzero" fill="#FFFFFF">
            <g id="位置-(3)" transform="translate(731.000000, 625.000000)">
                <path d="M18,2.23187164e-15 C8.05452346,2.23187164e-15 0,7.98038513 0,17.8263624 C0,27.6758996 18,50.0338983 18,50.0338983 C18,50.0338983 36,27.6758996 36,17.8263624 C36,7.98038513 27.9454765,0 18,2.23187164e-15 Z M18,28.6408394 C12.0348708,28.6408394 7.19928109,23.8482841 7.19928109,17.9407501 C7.19928109,12.0367236 12.0348708,7.24778055 18,7.24778055 C23.9615346,7.24778055 28.8007189,12.0367236 28.8007189,17.9407501 C28.8007189,23.8483365 23.9614818,28.6408394 18,28.6408394 Z" id="Shape"></path>
            </g>
        </g>
    </g>
</svg>