<?xml version="1.0" encoding="UTF-8" standalone="no"?>
<svg width="64px" height="52px" viewBox="0 0 64 52" version="1.1" xmlns="http://www.w3.org/2000/svg" xmlns:xlink="http://www.w3.org/1999/xlink">
    <!-- Generator: Sketch 49.1 (51147) - http://www.bohemiancoding.com/sketch -->
    <title>Fill 1</title>
    <desc>Created with Sketch.</desc>
    <defs></defs>
    <g id="Page-1" stroke="none" stroke-width="1" fill="none" fill-rule="evenodd">
        <g id="资源页面" transform="translate(-928.000000, -465.000000)" fill="#D5D5D5">
            <g id="图2" transform="translate(719.000000, 345.000000)">
                <path d="M260.954101,140.598445 L260.954101,131.298029 L273,131.298029 L273,141.581511 C272.764621,158.307726 258.224359,171.503982 241.197605,171.883042 C223.890994,171.773222 209.238351,158.482888 209.000409,141.578948 L209.000409,123.093061 C208.974236,121.202705 210.205859,119.976389 212.064917,120.002562 L260.948976,120 L260.948976,131.292721 L222.615077,131.303154 C221.632011,131.303154 221.041183,131.901852 221.041183,132.877231 L221.041183,140.410104 C221.171685,151.370805 230.001525,160.357504 241.195042,160.469885 C252.14531,160.127432 260.825979,151.415282 260.954101,140.598445 Z" id="Fill-1"></path>
            </g>
        </g>
    </g>
</svg>