<?xml version="1.0" encoding="UTF-8" standalone="no"?>
<svg width="40px" height="34px" viewBox="0 0 40 34" version="1.1" xmlns="http://www.w3.org/2000/svg" xmlns:xlink="http://www.w3.org/1999/xlink">
    <!-- Generator: Sketch 46.2 (44496) - http://www.bohemiancoding.com/sketch -->
    <title>搜索 (2)</title>
    <desc>Created with Sketch.</desc>
    <defs></defs>
    <g id="Page-1" stroke="none" stroke-width="1" fill="none" fill-rule="evenodd">
        <g id="p1" transform="translate(-1281.000000, -521.000000)" fill-rule="nonzero" fill="#FFFFFF">
            <g id="搜索-(2)" transform="translate(1281.000000, 521.000000)">
                <path d="M2.73849114,19.8195422 C1.08075078,12.0656329 5.78483553,4.45093195 13.244087,2.80943257 C20.7033386,1.16909327 28.0941459,6.12259312 29.7507262,13.8765025 C31.4096266,21.6304119 26.707862,29.2462729 19.2474505,30.8877722 C11.7870389,32.5269515 4.39739154,27.5722915 2.73849114,19.8195422 L2.73849114,19.8195422 Z M28.9491177,27.4771658 L37.7076479,33.3471211 L39.3224656,30.7311627 L30.5987376,24.8820887 C32.3458033,21.484243 32.9734013,17.4379181 32.1010285,13.3602712 C30.1544307,4.25952035 21.4794256,-1.55823181 12.7220554,0.368644838 C3.96468536,2.2943614 -1.55608885,11.2327024 0.390508995,20.3346134 C2.33710684,29.4376844 11.0121119,35.2542765 19.769482,33.3273999 C23.5431905,32.4979497 26.7159826,30.3634205 28.9491177,27.4771658 L28.9491177,27.4771658 Z" id="Shape"></path>
            </g>
        </g>
    </g>
</svg>