<?xml version="1.0" encoding="UTF-8" standalone="no"?>
<svg width="25px" height="24px" viewBox="0 0 25 24" version="1.1" xmlns="http://www.w3.org/2000/svg" xmlns:xlink="http://www.w3.org/1999/xlink">
    <!-- Generator: Sketch 48.1 (47250) - http://www.bohemiancoding.com/sketch -->
    <title>in</title>
    <desc>Created with Sketch.</desc>
    <defs>
        <polygon id="path-1" points="0 0 25 0 25 24 0 24"></polygon>
    </defs>
    <g id="p3-copy" stroke="none" stroke-width="1" fill="none" fill-rule="evenodd" transform="translate(-1241.000000, -831.000000)">
        <g id="Group-8-Copy" transform="translate(995.000000, 329.000000)">
            <g id="底部icon" transform="translate(30.000000, 497.000000)">
                <g id="in" transform="translate(216.000000, 5.000000)">
                    <mask id="mask-2" fill="white">
                        <use xlink:href="#path-1"></use>
                    </mask>
                    <g id="Clip-2"></g>
                    <path d="M2.97937507,5.59438706 C1.68665026,5.72674706 0.487946122,4.89808453 0.142092843,3.63291053 C-0.334794316,2.20099418 0.427725282,0.649941826 1.84517626,0.168228386 C2.13747346,0.0689283362 2.44440932,0.0207209268 2.75277334,0.0257700819 C3.65977534,-0.0898796134 4.57284704,0.187102609 5.26645781,0.788673373 C6.05016182,1.61589328 6.28973603,2.82624789 5.88140065,3.89438463 C5.45795056,4.95951592 4.41682032,5.64019011 3.28143138,5.59438706 L2.97937507,5.59438706 Z M0.390117011,24 L5.71954227,24 L5.71954227,7.8828565 L0.390117011,7.8828565 L0.390117011,24 Z M14.0696496,24 L8.67548097,24 L8.67548097,7.8828565 L14.0696496,7.8828565 L14.0696496,9.99688965 C14.4040776,9.60461839 14.6413905,9.31044499 14.8895337,9.03791084 C15.8727044,8.00571927 17.2367183,7.43312104 18.6546453,7.45776573 C20.1561198,7.34704497 21.6447409,7.80543612 22.8296394,8.74373744 C23.5559789,9.36983268 24.1065355,10.1778177 24.4263248,11.0866656 C24.8277574,12.1770427 25.0217494,13.334261 24.9980657,14.4974901 L24.9980657,24 L19.6794707,24 L19.6794707,23.4224728 L19.6794707,15.2820326 C19.699822,14.448922 19.5104715,13.6239863 19.1292712,12.8846457 C18.7540216,12.2275342 18.0675516,11.8148259 17.3169334,11.79499 C16.5427505,11.678619 15.7563091,11.9049894 15.1592183,12.4161562 C14.5001215,12.9472793 14.1055917,13.7442043 14.0803608,14.5957082 L14.0803608,23.4007134 L14.0696496,24 Z" id="Fill-1" fill="#333333" mask="url(#mask-2)"></path>
                </g>
            </g>
        </g>
    </g>
</svg>