<?xml version="1.0" encoding="UTF-8" standalone="no"?>
<svg width="27px" height="22px" viewBox="0 0 27 22" version="1.1" xmlns="http://www.w3.org/2000/svg" xmlns:xlink="http://www.w3.org/1999/xlink">
    <!-- Generator: Sketch 48.1 (47250) - http://www.bohemiancoding.com/sketch -->
    <title>鸟</title>
    <desc>Created with Sketch.</desc>
    <defs>
        <polygon id="path-1" points="0 0 27 0 27 22 0 22"></polygon>
    </defs>
    <g id="p3-copy" stroke="none" stroke-width="1" fill="none" fill-rule="evenodd" transform="translate(-1144.000000, -832.000000)">
        <g id="Group-8-Copy" transform="translate(995.000000, 329.000000)">
            <g id="底部icon" transform="translate(30.000000, 497.000000)">
                <g id="鸟" transform="translate(119.000000, 6.000000)">
                    <mask id="mask-2" fill="white">
                        <use xlink:href="#path-1"></use>
                    </mask>
                    <g id="Clip-2"></g>
                    <path d="M27,2.6089805 C26.003925,3.04961885 24.937425,3.34882886 23.8154625,3.48112187 C24.964425,2.79394259 25.841925,1.70977151 26.2560375,0.414924103 C25.1865,1.04954708 23.9999625,1.50371923 22.734,1.76086165 C21.726,0.679622899 20.2845375,0 18.691425,0 C15.631425,0 13.1504625,2.4871762 13.1504625,5.55337397 C13.1504625,5.99243337 13.203,6.41502663 13.2944625,6.81799587 C8.6954625,6.59096618 4.6094625,4.38044364 1.8795375,1.02247946 C1.404,1.84206452 1.127925,2.79394259 1.127925,3.80897845 C1.127925,5.73382479 2.106,7.43908503 3.593925,8.42851943 C2.6834625,8.3984067 1.8315,8.15930937 1.0875375,7.7367161 C1.0859625,7.7608514 1.0859625,7.78938519 1.0859625,7.81194154 C1.0859625,10.4961475 2.9939625,12.7397151 5.5305,13.257045 C5.0639625,13.3788493 4.5734625,13.4465184 4.068,13.4465184 C3.7125,13.4465184 3.3674625,13.4164056 3.026925,13.3443381 C3.7319625,15.562417 5.7794625,17.1607601 8.201925,17.1998954 C6.307425,18.693126 3.917925,19.5789139 1.3244625,19.5789139 C0.8775,19.5789139 0.432,19.5488012 0,19.4961321 C2.4510375,21.0826331 5.3609625,22 8.4915,22 C18.6795,22 24.2519625,13.5352776 24.2519625,6.20299692 C24.2519625,5.96085448 24.2490375,5.72175714 24.2368875,5.4826598 C25.3184625,4.69769874 26.2560375,3.71875304 27,2.6089805" id="Fill-1" fill="#333333" mask="url(#mask-2)"></path>
                </g>
            </g>
        </g>
    </g>
</svg>