<?xml version="1.0" encoding="UTF-8" standalone="no"?>
<svg width="12px" height="26px" viewBox="0 0 12 26" version="1.1" xmlns="http://www.w3.org/2000/svg" xmlns:xlink="http://www.w3.org/1999/xlink">
    <!-- Generator: Sketch 48.1 (47250) - http://www.bohemiancoding.com/sketch -->
    <title>F</title>
    <desc>Created with Sketch.</desc>
    <defs>
        <polygon id="path-1" points="0 0 12 0 12 26 0 26"></polygon>
    </defs>
    <g id="p3-copy" stroke="none" stroke-width="1" fill="none" fill-rule="evenodd" transform="translate(-1200.000000, -831.000000)">
        <g id="Group-8-Copy" transform="translate(995.000000, 329.000000)">
            <g id="底部icon" transform="translate(30.000000, 497.000000)">
                <g id="F" transform="translate(175.000000, 5.000000)">
                    <mask id="mask-2" fill="white">
                        <use xlink:href="#path-1"></use>
                    </mask>
                    <g id="Clip-2"></g>
                    <path d="M11.5342038,12.99779 L8.02615582,13 L8.0239726,26 L3.20971747,26 L3.20971747,13 L0,13 L0,8.52085 L3.21177226,8.51877 L3.20535103,5.88055 C3.20535103,2.22443 4.18561644,0 8.43685788,0 L11.9788099,0 L11.9788099,4.4811 L9.76220034,4.4811 C8.10667808,4.4811 8.02615582,5.10692 8.02615582,6.27497 L8.01986301,8.51656 L12,8.51656 L11.5342038,12.99779 Z" id="Fill-1" fill="#333333" mask="url(#mask-2)"></path>
                </g>
            </g>
        </g>
    </g>
</svg>