<?xml version="1.0" encoding="UTF-8" standalone="no"?>
<svg width="28px" height="23px" viewBox="0 0 28 23" version="1.1" xmlns="http://www.w3.org/2000/svg" xmlns:xlink="http://www.w3.org/1999/xlink">
    <!-- Generator: Sketch 48.1 (47250) - http://www.bohemiancoding.com/sketch -->
    <title>微信</title>
    <desc>Created with Sketch.</desc>
    <defs>
        <polygon id="path-1" points="0 0.111604621 19.9886048 0.111604621 19.9886048 18.1547798 0 18.1547798"></polygon>
        <polygon id="path-3" points="0.136068666 0.106648532 16.9071304 0.106648532 16.9071304 15.1314335 0.136068666 15.1314335"></polygon>
    </defs>
    <g id="p3-copy" stroke="none" stroke-width="1" fill="none" fill-rule="evenodd" transform="translate(-1087.000000, -832.000000)">
        <g id="Group-8-Copy" transform="translate(995.000000, 329.000000)">
            <g id="底部icon" transform="translate(30.000000, 497.000000)">
                <g id="微信" transform="translate(62.000000, 6.000000)">
                    <g id="Group-3">
                        <mask id="mask-2" fill="white">
                            <use xlink:href="#path-1"></use>
                        </mask>
                        <g id="Clip-2"></g>
                        <path d="M6.55325797,6.9361534 C5.77209855,6.9361534 5.14285604,6.32941399 5.14285604,5.57888768 C5.14285604,4.82850899 5.77566957,4.22176958 6.55325797,4.22176958 C7.33441739,4.22176958 7.96708213,4.82850899 7.96708213,5.57888768 C7.96708213,6.32941399 7.33441739,6.9361534 6.55325797,6.9361534 M13.548429,4.22176958 C14.3295884,4.22176958 14.9586821,4.82850899 14.9586821,5.57888768 C14.9586821,6.32587099 14.3295884,6.9361534 13.548429,6.9361534 C12.7672696,6.9361534 12.1380271,6.32941399 12.1380271,5.57888768 C12.1380271,4.82850899 12.7708406,4.22176958 13.548429,4.22176958 M19.5643981,7.16762965 C19.7058995,7.16762965 19.8472522,7.17102503 19.9886048,7.17811104 C19.246429,3.17673107 15.0824773,0.111589859 10.0527034,0.111589859 C4.49962705,0.111589859 0,3.84650642 0,8.4510828 C0,11.1514422 1.54818357,13.5537465 3.94463188,15.0793049 C3.97647343,15.1004153 4.03658551,15.1354024 4.03658551,15.1354024 L3.0645256,18.1547798 L6.69818164,16.3172895 C6.69818164,16.3172895 6.81126377,16.3488813 6.86780483,16.366301 C7.86813527,16.6433935 8.93571981,16.7907234 10.0491324,16.7907234 C10.2752966,16.7907234 10.5016097,16.7836374 10.7242029,16.769613 C10.5191671,16.1349724 10.406085,15.4685924 10.406085,14.7777067 C10.409656,10.5762946 14.5099246,7.16762965 19.5643981,7.16762965" id="Fill-1" fill="#333333" mask="url(#mask-2)"></path>
                    </g>
                    <g id="Group-6" transform="translate(10.956522, 7.868421)">
                        <mask id="mask-4" fill="white">
                            <use xlink:href="#path-3"></use>
                        </mask>
                        <g id="Clip-5"></g>
                        <path d="M4.42573583,4.65878036 C4.42573583,4.03663968 4.95276132,3.53191422 5.60188276,3.53191422 C6.25115112,3.53191422 6.78170285,4.03663968 6.78170285,4.65878036 C6.78170285,5.28441296 6.25453043,5.78899291 5.60188276,5.78899291 C4.95276132,5.78899291 4.42573583,5.28441296 4.42573583,4.65878036 M10.2615109,4.65878036 C10.2615109,4.03663968 10.7886834,3.53191422 11.4378048,3.53191422 C12.0904525,3.53191422 12.617478,4.03663968 12.617478,4.65878036 C12.617478,5.28441296 12.0904525,5.78899291 11.4378048,5.78899291 C10.7886834,5.78899291 10.2615109,5.28441296 10.2615109,4.65878036 M0.136068666,7.05044281 C0.136068666,10.8871711 3.89165787,13.9978745 8.52337001,13.9978745 C9.4517988,13.9978745 10.3418798,13.8734755 11.1759817,13.6418459 C11.2247613,13.6280238 11.3190882,13.6003796 11.3190882,13.6003796 L14.3487133,15.1314335 L13.5390012,12.6188639 C13.5390012,12.6188639 13.591307,12.5877277 13.6158438,12.5704137 C15.6156609,11.3018345 16.9071451,9.3041751 16.9071451,7.05408021 C16.9071451,3.21749747 13.1515559,0.106648532 8.52337001,0.106648532 C3.89165787,0.106648532 0.136068666,3.21749747 0.136068666,7.05044281" id="Fill-4" fill="#333333" mask="url(#mask-4)"></path>
                    </g>
                </g>
            </g>
        </g>
    </g>
</svg>