<?xml version="1.0" encoding="UTF-8" standalone="no"?>
<svg width="31px" height="25px" viewBox="0 0 31 25" version="1.1" xmlns="http://www.w3.org/2000/svg" xmlns:xlink="http://www.w3.org/1999/xlink">
    <!-- Generator: Sketch 48.1 (47250) - http://www.bohemiancoding.com/sketch -->
    <title>微博</title>
    <desc>Created with Sketch.</desc>
    <defs>
        <polygon id="path-1" points="0 0 33 0 33 29 0 29"></polygon>
    </defs>
    <g id="p3-copy" stroke="none" stroke-width="1" fill="none" fill-rule="evenodd" transform="translate(-1027.000000, -830.000000)">
        <g id="Group-8-Copy" transform="translate(995.000000, 329.000000)">
            <g id="底部icon" transform="translate(30.000000, 497.000000)">
                <g id="微博">
                    <mask id="mask-2" fill="white">
                        <use xlink:href="#path-1"></use>
                    </mask>
                    <g id="Clip-2"></g>
                    <path d="M26.9220073,4.97688668 C25.8959833,4.74727006 24.5201892,4.79306705 22.7944647,5.11459348 C22.7711788,5.11459348 22.7478929,5.12596376 22.7239646,5.14854642 L22.6894373,5.21787358 L22.6547494,5.25198444 C22.3979623,5.32099576 22.1879076,5.4643877 22.0247459,5.68231819 C21.8614235,5.90009076 21.7796821,6.13539251 21.7796821,6.3877497 C21.7796821,6.73185878 21.8962721,7.01832683 22.1297732,7.24731176 C22.3632744,7.47629669 22.6430261,7.591105 22.969189,7.5918946 L23.0742164,7.5918946 C23.0971811,7.5918946 23.1498554,7.58036639 23.231918,7.55778374 C23.3141413,7.53488525 23.4015035,7.5176719 23.4940046,7.50598577 C23.5865058,7.49414172 23.6859124,7.47092739 23.7915821,7.43665861 C23.8972518,7.40223191 23.9907165,7.36764729 24.0713338,7.33322059 C24.1517906,7.29895181 24.3093316,7.28142262 24.5434751,7.28142262 C24.7776187,7.28142262 25.0636335,7.29847805 25.4008773,7.33322059 C25.7382816,7.36796313 26.1110163,7.4533982 26.5198842,7.59078916 C26.9285916,7.72818012 27.3368171,7.89999778 27.7444003,8.10703174 C28.1518229,8.3140657 28.5595667,8.60021791 28.9687558,8.9665938 C29.3776238,9.33281177 29.7333356,9.75698661 30.0354097,10.2388025 C30.6418061,11.5917086 30.7590385,12.8989757 30.3856615,14.16013 C30.3856615,14.1827126 30.3798801,14.205927 30.3678357,14.2294571 C30.3559519,14.2531452 30.3384473,14.3103125 30.3151615,14.4012748 C30.2918756,14.4922371 30.2685897,14.5781459 30.2446615,14.6588434 C30.2207332,14.7396987 30.1974473,14.842663 30.1741614,14.968052 C30.1508756,15.0935989 30.1394735,15.2024062 30.1394735,15.2949477 C30.1394735,15.5010342 30.1977685,15.6730097 30.3141979,15.8110324 C30.4306273,15.949055 30.5766057,16.0464921 30.7518119,16.1036593 C30.927018,16.1609845 31.1311308,16.1895682 31.3639896,16.1895682 C32.0171184,16.1895682 32.4015763,15.7996621 32.5180057,15.0195341 C32.7977574,14.1252295 32.9551379,13.2711947 32.990147,12.4574296 C33.0251561,11.6438225 32.9668611,10.9273365 32.8154226,10.3081297 C32.6641447,9.68892282 32.436746,9.10998574 32.1340296,8.57131843 C31.8309919,8.03296696 31.4813826,7.57420749 31.0842379,7.19551379 C30.6874144,6.81697801 30.2440191,6.47286893 29.7546944,6.16318655 C29.2653698,5.85334624 28.7927467,5.60683212 28.3377888,5.42364418 C27.8826703,5.24014039 27.4102078,5.09137914 26.9208831,4.97688668 L26.9220073,4.97688668 Z M27.5160381,14.6751092 C27.6563958,14.6751092 27.7848696,14.6408404 27.9009778,14.5716712 C28.0172466,14.5026599 28.1103901,14.4169089 28.1807295,14.3141026 C28.2507478,14.2114542 28.2973195,14.102331 28.3206054,13.9872069 C28.3438913,13.9646242 28.3552933,13.9298817 28.3552933,13.8837689 C28.6350451,11.2695505 27.7021646,9.77925343 25.5574547,9.41224585 C24.9277724,9.29775339 24.3445013,9.2863831 23.8079625,9.37813499 C23.6448007,9.37813499 23.5047643,9.41824684 23.3881743,9.49799676 C23.2719055,9.57790461 23.1724989,9.68134263 23.0907574,9.80720538 C23.0085342,9.93354189 22.9677437,10.0650898 22.9688679,10.2021649 C22.9688679,10.4317815 23.0506093,10.6268135 23.2139317,10.7864713 C23.377254,10.9464449 23.5755855,11.0269844 23.8079625,11.0274582 C25.6269912,10.6143378 26.6062829,11.1879056 26.7459982,12.7478457 C26.7928911,13.1374359 26.7696052,13.5041276 26.6754982,13.8482367 C26.6754982,14.0778533 26.7574002,14.2727274 26.920562,14.4323852 C27.0840449,14.5923588 27.2822158,14.6728983 27.5150746,14.67353 L27.5160381,14.6751092 Z M15.100007,21.8638148 C14.9366847,21.9781493 14.767581,22.0299473 14.5930172,22.0188928 C14.4182928,22.0078384 14.2959215,21.9332999 14.2257427,21.7955931 L14.1552427,21.6578863 C14.1319568,21.6117734 14.1207153,21.5659764 14.1207153,21.5201795 L14.1207153,21.3824727 C14.1207153,21.3134613 14.132278,21.2562941 14.1552427,21.2108129 L14.2257427,21.0731061 C14.2487074,21.0269933 14.2840377,20.9922507 14.3309306,20.9696681 L14.435958,20.8319613 C14.6227268,20.6939387 14.8030719,20.6367714 14.9777963,20.6603016 C15.1523601,20.6838317 15.2747314,20.7754257 15.3449102,20.9353993 C15.415089,21.0269933 15.4441562,21.1302734 15.4322724,21.2446079 C15.420228,21.3589425 15.3852189,21.4677498 15.3270845,21.5715037 C15.2689501,21.6747838 15.1931505,21.7723787 15.100007,21.8641306 L15.100007,21.8638148 Z M12.127444,24.3398525 C11.9870864,24.3625931 11.8531524,24.3685941 11.7259633,24.3575396 C11.5981319,24.3463273 11.4817025,24.3234288 11.375551,24.2880546 C11.2695601,24.2528383 11.1646933,24.2130423 11.0612719,24.1681928 C10.9573687,24.1233433 10.8700065,24.0604909 10.7991853,23.9790039 C10.7283641,23.8976747 10.6644484,23.8171352 10.6067958,23.737859 C10.5491431,23.6587408 10.5025714,23.5671468 10.4667593,23.4629192 C10.4309472,23.3583757 10.4134427,23.2497263 10.414085,23.1358656 C10.414085,22.8833504 10.4842639,22.6368363 10.6246215,22.3964811 C10.7649791,22.155968 10.9573687,21.9492498 11.2022719,21.7769584 C11.4470145,21.6045091 11.7206638,21.5069141 12.0237014,21.4841735 C12.2332743,21.4617488 12.4373871,21.467434 12.6360397,21.5018607 C12.8345318,21.5359715 13.0033143,21.5934546 13.1430295,21.6735204 C13.2827448,21.7535862 13.4051161,21.8451801 13.5101435,21.9486182 C13.6153314,22.0518983 13.6909704,22.1725496 13.737221,22.3096247 C13.7834715,22.4470157 13.806918,22.595777 13.807721,22.7563822 C13.807721,23.0090553 13.732082,23.2494105 13.5803223,23.4783954 C13.4288838,23.7072224 13.2249316,23.9020965 12.9681446,24.0625439 C12.7113575,24.2231492 12.4316058,24.315059 12.1288893,24.3377996 L12.127444,24.3398525 Z M13.3864874,17.8388914 C12.7105546,17.9080606 12.1044793,18.0628228 11.5679405,18.303336 C11.0314017,18.544007 10.6116135,18.8191048 10.3088971,19.1284713 C10.0058595,19.4383116 9.7493936,19.7707346 9.53885713,20.1257402 C9.32832066,20.4809037 9.18250287,20.83054 9.10124318,21.1744912 C9.02014408,21.5186002 8.96746982,21.8338099 8.94338098,22.1198041 C8.91945273,22.4056405 8.90789009,22.6290982 8.90885364,22.7898614 L8.94338098,23.0649592 L8.94338098,23.202666 C8.94338098,23.2716773 8.96698804,23.4090683 9.01388099,23.6153126 C9.06077393,23.821557 9.12517143,24.0107459 9.20643112,24.1835111 C9.28753022,24.3558025 9.42178536,24.5449914 9.6080724,24.7515516 C9.79468062,24.9574802 10.0161374,25.1296137 10.273085,25.2676363 C11.8122014,26.0013356 13.2461298,26.2246354 14.5751915,25.9376936 C15.9040925,25.6509097 16.9765277,24.991591 17.7926577,23.9602113 C18.119463,23.5706211 18.3351384,23.0886473 18.4396839,22.5150795 C18.5440689,21.9413538 18.5204619,21.3624167 18.3690233,20.7782683 C18.2177454,20.1942777 17.9554982,19.6612956 17.5822818,19.1791638 C17.2093865,18.6970321 16.6556644,18.3243394 15.9214365,18.0609278 C15.1873692,17.7976741 14.3420115,17.7231355 13.3855239,17.8374701 L13.3864874,17.8388914 Z M14.4004671,27.3667175 C11.8823802,27.48121 9.7432911,26.9993941 7.98319977,25.9215857 C6.22310844,24.8437773 5.34322337,23.479343 5.34322337,21.8287564 C5.34322337,20.2005946 6.2176483,18.7962063 7.96633758,17.6155916 C9.71518745,16.4351348 11.8603791,15.7873443 14.4017518,15.6722201 C16.9431245,15.557096 19.0881555,15.9694268 20.8370054,16.9101601 C22.5858553,17.8505775 23.4602802,19.1349461 23.4602802,20.7623183 C23.4602802,22.4132207 22.5683507,23.8978327 20.7843312,25.2161542 C19.0004722,26.5347915 16.8729457,27.2509617 14.4017518,27.3654541 L14.4004671,27.3667175 Z M25.0674877,16.6701207 C24.7173965,16.6011094 24.4904797,16.4981451 24.3859341,16.36107 C24.2815491,16.2239949 24.2640446,16.0976583 24.3332598,15.9825342 L24.4384478,15.8108745 C24.4617336,15.787976 24.4850195,15.7535493 24.5089478,15.7074364 C24.532876,15.6613236 24.5794478,15.5637287 24.6489842,15.4149674 C24.7183601,15.2660482 24.7707132,15.1168132 24.8068464,14.968052 C24.8428191,14.8191328 24.8717257,14.635787 24.894048,14.4178565 C24.916531,14.199926 24.9107496,13.9935237 24.8763829,13.7983338 C24.8420162,13.6029859 24.7718373,13.3912144 24.6656858,13.1622294 C24.5596949,12.9332445 24.4138771,12.7268422 24.2282325,12.5427068 C23.9014272,12.2214962 23.4755365,12.014778 22.9512027,11.9231841 C22.4267083,11.8315901 21.9020534,11.8255891 21.3780408,11.9056549 C20.8533858,11.9857206 20.3577981,12.0888428 19.8919199,12.2148635 C19.4253993,12.3410421 19.0409414,12.4612197 18.7379038,12.5757122 L18.2834277,12.7827461 C18.0499265,12.8517575 17.857537,12.8975544 17.7057773,12.9204529 C17.5544993,12.9433514 17.4375882,12.9373504 17.3555255,12.9029237 C17.2734628,12.868655 17.2093865,12.8339124 17.1629754,12.7996436 C17.1168854,12.7652169 17.0993808,12.6848353 17.1103011,12.5584988 C17.1218637,12.4323202 17.1331052,12.3235129 17.144989,12.2316031 C17.1568729,12.1400091 17.1861007,11.9966172 17.2323512,11.8012693 C17.2786018,11.6060794 17.3139321,11.4511593 17.3373786,11.3369826 C17.3373786,11.0618849 17.3200346,10.8038426 17.2847043,10.5631715 C17.2495346,10.3225004 17.1738956,10.0534037 17.0573056,9.75540741 C16.9410368,9.45741116 16.7722544,9.21689802 16.5503158,9.03339423 C16.3283773,8.84989044 16.0489468,8.7011292 15.7110606,8.58647881 C15.3730139,8.47214426 14.9357211,8.43771756 14.3991823,8.48319871 C13.8626435,8.52867985 13.2565683,8.66638666 12.5806354,8.89600327 C11.7643449,9.17110103 10.9366523,9.57790461 10.0970759,10.1165719 C9.25782065,10.6550813 8.5292135,11.216805 7.91141502,11.8015852 C7.29361654,12.3863653 6.72801055,12.9539321 6.21475764,13.5041276 C5.70150473,14.0541652 5.30500241,14.5013965 5.02525066,14.8455056 L4.64047157,15.3957011 C3.87107399,16.3820734 3.30016845,17.367972 2.92695201,18.3541864 C2.55373556,19.3404008 2.37917176,20.0851546 2.40197586,20.5892373 L2.40197586,21.3112504 C2.54233351,22.4116415 2.88616157,23.3978559 3.43378122,24.2695778 C3.98124029,25.1412998 4.63420848,25.8464155 5.3923646,26.3849249 C6.15052073,26.9234342 7.04245022,27.3820358 8.06831367,27.7607295 C9.09417712,28.1392653 10.0794107,28.4146789 11.0240145,28.5860228 C11.9687788,28.7578404 12.9655751,28.878018 14.0144032,28.9470294 C15.7401278,29.085052 17.5296075,28.9533462 19.3831636,28.5519119 C21.2363984,28.1506356 22.9618018,27.4570481 24.5593737,26.4706758 C26.1571063,25.4844614 27.2818946,24.3036887 27.9350234,22.9281999 C28.3310439,22.1254893 28.5351567,21.3688915 28.5472011,20.6577748 C28.5590849,19.9468161 28.4368742,19.3677211 28.1800872,18.9209636 C27.9233001,18.4740482 27.5907135,18.0787728 27.1829697,17.7346637 C26.775226,17.3903967 26.3901257,17.1380395 26.0289537,16.9772763 C25.6677816,16.816829 25.3472394,16.7137068 25.0678089,16.6682256 L25.0674877,16.6701207 Z" id="Fill-1" fill="#333333" mask="url(#mask-2)"></path>
                </g>
            </g>
        </g>
    </g>
</svg>